<svg width="16" height="16" viewBox="0 0 16 16" fill="none" xmlns="http://www.w3.org/2000/svg">
<path d="M8.16283 2.6665C8.51883 2.6685 9.4095 2.67717 10.3562 2.71517L10.6922 2.72984C11.6448 2.7745 12.5968 2.85184 13.0695 2.98317C13.6995 3.1605 14.1942 3.6765 14.3615 4.33117C14.6282 5.37117 14.6615 7.39917 14.6655 7.8905L14.6662 7.99184V8.10784C14.6615 8.59917 14.6282 10.6278 14.3615 11.6672C14.1922 12.3238 13.6968 12.8405 13.0695 13.0152C12.5968 13.1465 11.6448 13.2238 10.6922 13.2685L10.3562 13.2838C9.4095 13.3212 8.51883 13.3305 8.16283 13.3318L8.00616 13.3325H7.83616C7.08283 13.3278 3.93216 13.2938 2.9295 13.0152C2.30016 12.8378 1.80483 12.3218 1.6375 11.6672C1.37083 10.6272 1.3375 8.59917 1.3335 8.10784V7.8905C1.3375 7.39917 1.37083 5.3705 1.6375 4.33117C1.80683 3.6745 2.30216 3.15784 2.93016 2.98384C3.93216 2.7045 7.0835 2.6705 7.83683 2.6665H8.16283ZM6.66616 5.6665V10.3332L10.6662 7.99984L6.66616 5.6665Z" fill="#737373"/>
</svg>
